<svg xmlns="http://www.w3.org/2000/svg" width="600" height="600" viewBox="0 0 600 600" role="img" aria-labelledby="title desc">
<title id="title">A failed charge</title>
<desc id="desc">Warhammer Armies Revamped rules diagram. Blue and red bases distinguish the opposing forces; arrowheads show facing. Dashed outlines show previous positions.</desc>
<defs><marker id="arrow" viewBox="0 0 10 10" refX="9" refY="5" markerWidth="7" markerHeight="7" orient="auto-start-reverse"><path d="M 0 0 L 10 5 L 0 10 z" fill="#30291f"/></marker></defs>
<rect x="3" y="3" width="594" height="594" fill="#f5f0e5" stroke="#b5a58a" stroke-width="1.5" rx="8"/>
<line x1="20" y1="49" x2="580" y2="49" stroke="#b5a58a" stroke-width="1"/>
<text x="300.0" y="31" fill="#30291f" font-family="Libertinus Serif, Georgia, serif" font-size="18" text-anchor="middle" letter-spacing="2">A FAILED CHARGE</text>
<g transform="translate(106 105) rotate(16)">
<rect x="0" y="0" width="37" height="37" fill="#984f56" stroke="#30291f" stroke-width="1.3"/>
<line x1="3" y1="34" x2="34" y2="34" stroke="#fffdf6" stroke-width="0.65"/>
<g transform="translate(18.5 18.5) rotate(90)">
<path d="M -9.25 -8.14 L 0 -13.69 L 9.25 -8.14" fill="none" stroke="#fffdf6" stroke-width="1.8" stroke-linejoin="round" stroke-linecap="round"/>
</g>
<rect x="37" y="0" width="37" height="37" fill="#984f56" stroke="#30291f" stroke-width="1.3"/>
<line x1="40" y1="34" x2="71" y2="34" stroke="#fffdf6" stroke-width="0.65"/>
<g transform="translate(55.5 18.5) rotate(90)">
<path d="M -9.25 -8.14 L 0 -13.69 L 9.25 -8.14" fill="none" stroke="#fffdf6" stroke-width="1.8" stroke-linejoin="round" stroke-linecap="round"/>
</g>
<rect x="74" y="0" width="37" height="37" fill="#984f56" stroke="#30291f" stroke-width="1.3"/>
<line x1="77" y1="34" x2="108" y2="34" stroke="#fffdf6" stroke-width="0.65"/>
<g transform="translate(92.5 18.5) rotate(90)">
<path d="M -9.25 -8.14 L 0 -13.69 L 9.25 -8.14" fill="none" stroke="#fffdf6" stroke-width="1.8" stroke-linejoin="round" stroke-linecap="round"/>
</g>
<rect x="111" y="0" width="37" height="37" fill="#984f56" stroke="#30291f" stroke-width="1.3"/>
<line x1="114" y1="34" x2="145" y2="34" stroke="#fffdf6" stroke-width="0.65"/>
<g transform="translate(129.5 18.5) rotate(90)">
<path d="M -9.25 -8.14 L 0 -13.69 L 9.25 -8.14" fill="none" stroke="#fffdf6" stroke-width="1.8" stroke-linejoin="round" stroke-linecap="round"/>
</g>
<rect x="0" y="37" width="37" height="37" fill="#984f56" stroke="#30291f" stroke-width="1.3"/>
<line x1="3" y1="71" x2="34" y2="71" stroke="#fffdf6" stroke-width="0.65"/>
<g transform="translate(18.5 55.5) rotate(90)">
<path d="M -9.25 -8.14 L 0 -13.69 L 9.25 -8.14" fill="none" stroke="#fffdf6" stroke-width="1.8" stroke-linejoin="round" stroke-linecap="round"/>
</g>
<rect x="37" y="37" width="37" height="37" fill="#984f56" stroke="#30291f" stroke-width="1.3"/>
<line x1="40" y1="71" x2="71" y2="71" stroke="#fffdf6" stroke-width="0.65"/>
<g transform="translate(55.5 55.5) rotate(90)">
<path d="M -9.25 -8.14 L 0 -13.69 L 9.25 -8.14" fill="none" stroke="#fffdf6" stroke-width="1.8" stroke-linejoin="round" stroke-linecap="round"/>
</g>
<rect x="74" y="37" width="37" height="37" fill="#984f56" stroke="#30291f" stroke-width="1.3"/>
<line x1="77" y1="71" x2="108" y2="71" stroke="#fffdf6" stroke-width="0.65"/>
<g transform="translate(92.5 55.5) rotate(90)">
<path d="M -9.25 -8.14 L 0 -13.69 L 9.25 -8.14" fill="none" stroke="#fffdf6" stroke-width="1.8" stroke-linejoin="round" stroke-linecap="round"/>
</g>
<rect x="111" y="37" width="37" height="37" fill="#984f56" stroke="#30291f" stroke-width="1.3"/>
<line x1="114" y1="71" x2="145" y2="71" stroke="#fffdf6" stroke-width="0.65"/>
<g transform="translate(129.5 55.5) rotate(90)">
<path d="M -9.25 -8.14 L 0 -13.69 L 9.25 -8.14" fill="none" stroke="#fffdf6" stroke-width="1.8" stroke-linejoin="round" stroke-linecap="round"/>
</g>
<rect x="0" y="74" width="37" height="37" fill="#984f56" stroke="#30291f" stroke-width="1.3"/>
<line x1="3" y1="108" x2="34" y2="108" stroke="#fffdf6" stroke-width="0.65"/>
<g transform="translate(18.5 92.5) rotate(90)">
<path d="M -9.25 -8.14 L 0 -13.69 L 9.25 -8.14" fill="none" stroke="#fffdf6" stroke-width="1.8" stroke-linejoin="round" stroke-linecap="round"/>
</g>
<rect x="37" y="74" width="37" height="37" fill="#984f56" stroke="#30291f" stroke-width="1.3"/>
<line x1="40" y1="108" x2="71" y2="108" stroke="#fffdf6" stroke-width="0.65"/>
<g transform="translate(55.5 92.5) rotate(90)">
<path d="M -9.25 -8.14 L 0 -13.69 L 9.25 -8.14" fill="none" stroke="#fffdf6" stroke-width="1.8" stroke-linejoin="round" stroke-linecap="round"/>
</g>
<rect x="74" y="74" width="37" height="37" fill="#984f56" stroke="#30291f" stroke-width="1.3"/>
<line x1="77" y1="108" x2="108" y2="108" stroke="#fffdf6" stroke-width="0.65"/>
<g transform="translate(92.5 92.5) rotate(90)">
<path d="M -9.25 -8.14 L 0 -13.69 L 9.25 -8.14" fill="none" stroke="#fffdf6" stroke-width="1.8" stroke-linejoin="round" stroke-linecap="round"/>
</g>
<rect x="111" y="74" width="37" height="37" fill="#984f56" stroke="#30291f" stroke-width="1.3"/>
<line x1="114" y1="108" x2="145" y2="108" stroke="#fffdf6" stroke-width="0.65"/>
<g transform="translate(129.5 92.5) rotate(90)">
<path d="M -9.25 -8.14 L 0 -13.69 L 9.25 -8.14" fill="none" stroke="#fffdf6" stroke-width="1.8" stroke-linejoin="round" stroke-linecap="round"/>
</g>
<rect x="0" y="111" width="37" height="37" fill="#984f56" stroke="#30291f" stroke-width="1.3"/>
<line x1="3" y1="145" x2="34" y2="145" stroke="#fffdf6" stroke-width="0.65"/>
<g transform="translate(18.5 129.5) rotate(90)">
<path d="M -9.25 -8.14 L 0 -13.69 L 9.25 -8.14" fill="none" stroke="#fffdf6" stroke-width="1.8" stroke-linejoin="round" stroke-linecap="round"/>
</g>
<rect x="37" y="111" width="37" height="37" fill="#984f56" stroke="#30291f" stroke-width="1.3"/>
<line x1="40" y1="145" x2="71" y2="145" stroke="#fffdf6" stroke-width="0.65"/>
<g transform="translate(55.5 129.5) rotate(90)">
<path d="M -9.25 -8.14 L 0 -13.69 L 9.25 -8.14" fill="none" stroke="#fffdf6" stroke-width="1.8" stroke-linejoin="round" stroke-linecap="round"/>
</g>
<rect x="74" y="111" width="37" height="37" fill="#984f56" stroke="#30291f" stroke-width="1.3"/>
<line x1="77" y1="145" x2="108" y2="145" stroke="#fffdf6" stroke-width="0.65"/>
<g transform="translate(92.5 129.5) rotate(90)">
<path d="M -9.25 -8.14 L 0 -13.69 L 9.25 -8.14" fill="none" stroke="#fffdf6" stroke-width="1.8" stroke-linejoin="round" stroke-linecap="round"/>
</g>
<rect x="111" y="111" width="37" height="37" fill="#984f56" stroke="#30291f" stroke-width="1.3"/>
<line x1="114" y1="145" x2="145" y2="145" stroke="#fffdf6" stroke-width="0.65"/>
<g transform="translate(129.5 129.5) rotate(90)">
<path d="M -9.25 -8.14 L 0 -13.69 L 9.25 -8.14" fill="none" stroke="#fffdf6" stroke-width="1.8" stroke-linejoin="round" stroke-linecap="round"/>
</g>
<rect x="0" y="148" width="37" height="37" fill="#984f56" stroke="#30291f" stroke-width="1.3"/>
<line x1="3" y1="182" x2="34" y2="182" stroke="#fffdf6" stroke-width="0.65"/>
<g transform="translate(18.5 166.5) rotate(90)">
<path d="M -9.25 -8.14 L 0 -13.69 L 9.25 -8.14" fill="none" stroke="#fffdf6" stroke-width="1.8" stroke-linejoin="round" stroke-linecap="round"/>
</g>
<rect x="37" y="148" width="37" height="37" fill="#984f56" stroke="#30291f" stroke-width="1.3"/>
<line x1="40" y1="182" x2="71" y2="182" stroke="#fffdf6" stroke-width="0.65"/>
<g transform="translate(55.5 166.5) rotate(90)">
<path d="M -9.25 -8.14 L 0 -13.69 L 9.25 -8.14" fill="none" stroke="#fffdf6" stroke-width="1.8" stroke-linejoin="round" stroke-linecap="round"/>
</g>
<rect x="74" y="148" width="37" height="37" fill="#984f56" stroke="#30291f" stroke-width="1.3"/>
<line x1="77" y1="182" x2="108" y2="182" stroke="#fffdf6" stroke-width="0.65"/>
<g transform="translate(92.5 166.5) rotate(90)">
<path d="M -9.25 -8.14 L 0 -13.69 L 9.25 -8.14" fill="none" stroke="#fffdf6" stroke-width="1.8" stroke-linejoin="round" stroke-linecap="round"/>
</g>
<rect x="111" y="148" width="37" height="37" fill="#984f56" stroke="#30291f" stroke-width="1.3"/>
<line x1="114" y1="182" x2="145" y2="182" stroke="#fffdf6" stroke-width="0.65"/>
<g transform="translate(129.5 166.5) rotate(90)">
<path d="M -9.25 -8.14 L 0 -13.69 L 9.25 -8.14" fill="none" stroke="#fffdf6" stroke-width="1.8" stroke-linejoin="round" stroke-linecap="round"/>
</g>
</g>
<g transform="translate(438 392) rotate(30)">
<rect x="0" y="0" width="35" height="35" fill="#f5f0e5" stroke="#887b68" stroke-width="1.3" stroke-dasharray="4 3"/>
<g transform="translate(17.5 17.5) rotate(270)">
<path d="M -8.75 -7.7 L 0 -12.95 L 8.75 -7.7" fill="none" stroke="#887b68" stroke-width="1.8" stroke-linejoin="round" stroke-linecap="round"/>
</g>
<rect x="35" y="0" width="35" height="35" fill="#f5f0e5" stroke="#887b68" stroke-width="1.3" stroke-dasharray="4 3"/>
<g transform="translate(52.5 17.5) rotate(270)">
<path d="M -8.75 -7.7 L 0 -12.95 L 8.75 -7.7" fill="none" stroke="#887b68" stroke-width="1.8" stroke-linejoin="round" stroke-linecap="round"/>
</g>
<rect x="0" y="35" width="35" height="35" fill="#f5f0e5" stroke="#887b68" stroke-width="1.3" stroke-dasharray="4 3"/>
<g transform="translate(17.5 52.5) rotate(270)">
<path d="M -8.75 -7.7 L 0 -12.95 L 8.75 -7.7" fill="none" stroke="#887b68" stroke-width="1.8" stroke-linejoin="round" stroke-linecap="round"/>
</g>
<rect x="35" y="35" width="35" height="35" fill="#f5f0e5" stroke="#887b68" stroke-width="1.3" stroke-dasharray="4 3"/>
<g transform="translate(52.5 52.5) rotate(270)">
<path d="M -8.75 -7.7 L 0 -12.95 L 8.75 -7.7" fill="none" stroke="#887b68" stroke-width="1.8" stroke-linejoin="round" stroke-linecap="round"/>
</g>
<rect x="0" y="70" width="35" height="35" fill="#f5f0e5" stroke="#887b68" stroke-width="1.3" stroke-dasharray="4 3"/>
<g transform="translate(17.5 87.5) rotate(270)">
<path d="M -8.75 -7.7 L 0 -12.95 L 8.75 -7.7" fill="none" stroke="#887b68" stroke-width="1.8" stroke-linejoin="round" stroke-linecap="round"/>
</g>
<rect x="35" y="70" width="35" height="35" fill="#f5f0e5" stroke="#887b68" stroke-width="1.3" stroke-dasharray="4 3"/>
<g transform="translate(52.5 87.5) rotate(270)">
<path d="M -8.75 -7.7 L 0 -12.95 L 8.75 -7.7" fill="none" stroke="#887b68" stroke-width="1.8" stroke-linejoin="round" stroke-linecap="round"/>
</g>
<rect x="0" y="105" width="35" height="35" fill="#f5f0e5" stroke="#887b68" stroke-width="1.3" stroke-dasharray="4 3"/>
<g transform="translate(17.5 122.5) rotate(270)">
<path d="M -8.75 -7.7 L 0 -12.95 L 8.75 -7.7" fill="none" stroke="#887b68" stroke-width="1.8" stroke-linejoin="round" stroke-linecap="round"/>
</g>
<rect x="35" y="105" width="35" height="35" fill="#f5f0e5" stroke="#887b68" stroke-width="1.3" stroke-dasharray="4 3"/>
<g transform="translate(52.5 122.5) rotate(270)">
<path d="M -8.75 -7.7 L 0 -12.95 L 8.75 -7.7" fill="none" stroke="#887b68" stroke-width="1.8" stroke-linejoin="round" stroke-linecap="round"/>
</g>
<rect x="0" y="140" width="35" height="35" fill="#f5f0e5" stroke="#887b68" stroke-width="1.3" stroke-dasharray="4 3"/>
<g transform="translate(17.5 157.5) rotate(270)">
<path d="M -8.75 -7.7 L 0 -12.95 L 8.75 -7.7" fill="none" stroke="#887b68" stroke-width="1.8" stroke-linejoin="round" stroke-linecap="round"/>
</g>
<rect x="35" y="140" width="35" height="35" fill="#f5f0e5" stroke="#887b68" stroke-width="1.3" stroke-dasharray="4 3"/>
<g transform="translate(52.5 157.5) rotate(270)">
<path d="M -8.75 -7.7 L 0 -12.95 L 8.75 -7.7" fill="none" stroke="#887b68" stroke-width="1.8" stroke-linejoin="round" stroke-linecap="round"/>
</g>
</g>
<g transform="translate(348 347) rotate(30)">
<rect x="0" y="0" width="35" height="35" fill="#5c8798" stroke="#30291f" stroke-width="1.3"/>
<line x1="3" y1="32" x2="32" y2="32" stroke="#fffdf6" stroke-width="0.65"/>
<g transform="translate(17.5 17.5) rotate(270)">
<path d="M -8.75 -7.7 L 0 -12.95 L 8.75 -7.7" fill="none" stroke="#fffdf6" stroke-width="1.8" stroke-linejoin="round" stroke-linecap="round"/>
</g>
<rect x="35" y="0" width="35" height="35" fill="#5c8798" stroke="#30291f" stroke-width="1.3"/>
<line x1="38" y1="32" x2="67" y2="32" stroke="#fffdf6" stroke-width="0.65"/>
<g transform="translate(52.5 17.5) rotate(270)">
<path d="M -8.75 -7.7 L 0 -12.95 L 8.75 -7.7" fill="none" stroke="#fffdf6" stroke-width="1.8" stroke-linejoin="round" stroke-linecap="round"/>
</g>
<rect x="0" y="35" width="35" height="35" fill="#5c8798" stroke="#30291f" stroke-width="1.3"/>
<line x1="3" y1="67" x2="32" y2="67" stroke="#fffdf6" stroke-width="0.65"/>
<g transform="translate(17.5 52.5) rotate(270)">
<path d="M -8.75 -7.7 L 0 -12.95 L 8.75 -7.7" fill="none" stroke="#fffdf6" stroke-width="1.8" stroke-linejoin="round" stroke-linecap="round"/>
</g>
<rect x="35" y="35" width="35" height="35" fill="#5c8798" stroke="#30291f" stroke-width="1.3"/>
<line x1="38" y1="67" x2="67" y2="67" stroke="#fffdf6" stroke-width="0.65"/>
<g transform="translate(52.5 52.5) rotate(270)">
<path d="M -8.75 -7.7 L 0 -12.95 L 8.75 -7.7" fill="none" stroke="#fffdf6" stroke-width="1.8" stroke-linejoin="round" stroke-linecap="round"/>
</g>
<rect x="0" y="70" width="35" height="35" fill="#5c8798" stroke="#30291f" stroke-width="1.3"/>
<line x1="3" y1="102" x2="32" y2="102" stroke="#fffdf6" stroke-width="0.65"/>
<g transform="translate(17.5 87.5) rotate(270)">
<path d="M -8.75 -7.7 L 0 -12.95 L 8.75 -7.7" fill="none" stroke="#fffdf6" stroke-width="1.8" stroke-linejoin="round" stroke-linecap="round"/>
</g>
<rect x="35" y="70" width="35" height="35" fill="#5c8798" stroke="#30291f" stroke-width="1.3"/>
<line x1="38" y1="102" x2="67" y2="102" stroke="#fffdf6" stroke-width="0.65"/>
<g transform="translate(52.5 87.5) rotate(270)">
<path d="M -8.75 -7.7 L 0 -12.95 L 8.75 -7.7" fill="none" stroke="#fffdf6" stroke-width="1.8" stroke-linejoin="round" stroke-linecap="round"/>
</g>
<rect x="0" y="105" width="35" height="35" fill="#5c8798" stroke="#30291f" stroke-width="1.3"/>
<line x1="3" y1="137" x2="32" y2="137" stroke="#fffdf6" stroke-width="0.65"/>
<g transform="translate(17.5 122.5) rotate(270)">
<path d="M -8.75 -7.7 L 0 -12.95 L 8.75 -7.7" fill="none" stroke="#fffdf6" stroke-width="1.8" stroke-linejoin="round" stroke-linecap="round"/>
</g>
<rect x="35" y="105" width="35" height="35" fill="#5c8798" stroke="#30291f" stroke-width="1.3"/>
<line x1="38" y1="137" x2="67" y2="137" stroke="#fffdf6" stroke-width="0.65"/>
<g transform="translate(52.5 122.5) rotate(270)">
<path d="M -8.75 -7.7 L 0 -12.95 L 8.75 -7.7" fill="none" stroke="#fffdf6" stroke-width="1.8" stroke-linejoin="round" stroke-linecap="round"/>
</g>
<rect x="0" y="140" width="35" height="35" fill="#5c8798" stroke="#30291f" stroke-width="1.3"/>
<line x1="3" y1="172" x2="32" y2="172" stroke="#fffdf6" stroke-width="0.65"/>
<g transform="translate(17.5 157.5) rotate(270)">
<path d="M -8.75 -7.7 L 0 -12.95 L 8.75 -7.7" fill="none" stroke="#fffdf6" stroke-width="1.8" stroke-linejoin="round" stroke-linecap="round"/>
</g>
<rect x="35" y="140" width="35" height="35" fill="#5c8798" stroke="#30291f" stroke-width="1.3"/>
<line x1="38" y1="172" x2="67" y2="172" stroke="#fffdf6" stroke-width="0.65"/>
<g transform="translate(52.5 157.5) rotate(270)">
<path d="M -8.75 -7.7 L 0 -12.95 L 8.75 -7.7" fill="none" stroke="#fffdf6" stroke-width="1.8" stroke-linejoin="round" stroke-linecap="round"/>
</g>
</g>
<line x1="403" y1="342" x2="341" y2="307" stroke="#30291f" stroke-width="2" marker-end="url(#arrow)" marker-start="url(#arrow)"/>
<line x1="399.5588394237323" y1="348.0957701636742" x2="406.4411605762677" y2="335.9042298363258" stroke="#30291f" stroke-width="1.5"/>
<line x1="337.5588394237323" y1="313.0957701636742" x2="344.4411605762677" y2="300.9042298363258" stroke="#30291f" stroke-width="1.5"/>
<text x="353" y="271" fill="#30291f" font-family="Libertinus Serif, Georgia, serif" font-size="30" text-anchor="middle">3″</text>
<g transform="translate(472 143) rotate(0)">
<rect x="0" y="0" width="42" height="42" fill="#fffdf6" stroke="#30291f" stroke-width="1.8" rx="5"/>
<circle cx="9.66" cy="9.66" r="2.9400000000000004" fill="#30291f" stroke="#30291f" stroke-width="0"/>
<circle cx="21.0" cy="21.0" r="2.9400000000000004" fill="#30291f" stroke="#30291f" stroke-width="0"/>
<circle cx="32.34" cy="32.34" r="2.9400000000000004" fill="#30291f" stroke="#30291f" stroke-width="0"/>
</g>
<g transform="translate(472 209) rotate(0)">
<rect x="0" y="0" width="42" height="42" fill="#fffdf6" stroke="#30291f" stroke-width="1.8" rx="5"/>
<circle cx="21.0" cy="21.0" r="2.9400000000000004" fill="#30291f" stroke="#30291f" stroke-width="0"/>
</g>
</svg>
