<svg xmlns="http://www.w3.org/2000/svg" width="600" height="600" viewBox="0 0 600 600" role="img" aria-labelledby="title desc">
<title id="title">Multiple combat: before</title>
<desc id="desc">Warhammer Armies Revamped rules diagram. Blue and red bases distinguish the opposing forces; arrowheads show facing. Dashed outlines show previous positions.</desc>
<defs><marker id="arrow" viewBox="0 0 10 10" refX="9" refY="5" markerWidth="7" markerHeight="7" orient="auto-start-reverse"><path d="M 0 0 L 10 5 L 0 10 z" fill="#30291f"/></marker></defs>
<rect x="3" y="3" width="594" height="594" fill="#f5f0e5" stroke="#b5a58a" stroke-width="1.5" rx="8"/>
<line x1="20" y1="49" x2="580" y2="49" stroke="#b5a58a" stroke-width="1"/>
<text x="300.0" y="31" fill="#30291f" font-family="Libertinus Serif, Georgia, serif" font-size="18" text-anchor="middle" letter-spacing="2">MULTIPLE COMBAT: BEFORE</text>
<g transform="translate(218 151) rotate(0)">
<rect x="0" y="0" width="36" height="36" fill="#984f56" stroke="#30291f" stroke-width="1.3"/>
<line x1="3" y1="33" x2="33" y2="33" stroke="#fffdf6" stroke-width="0.65"/>
<g transform="translate(18.0 18.0) rotate(180)">
<path d="M -9.0 -7.92 L 0 -13.32 L 9.0 -7.92" fill="none" stroke="#fffdf6" stroke-width="1.8" stroke-linejoin="round" stroke-linecap="round"/>
</g>
<rect x="36" y="0" width="36" height="36" fill="#984f56" stroke="#30291f" stroke-width="1.3"/>
<line x1="39" y1="33" x2="69" y2="33" stroke="#fffdf6" stroke-width="0.65"/>
<g transform="translate(54.0 18.0) rotate(180)">
<path d="M -9.0 -7.92 L 0 -13.32 L 9.0 -7.92" fill="none" stroke="#fffdf6" stroke-width="1.8" stroke-linejoin="round" stroke-linecap="round"/>
</g>
<rect x="72" y="0" width="36" height="36" fill="#984f56" stroke="#30291f" stroke-width="1.3"/>
<line x1="75" y1="33" x2="105" y2="33" stroke="#fffdf6" stroke-width="0.65"/>
<g transform="translate(90.0 18.0) rotate(180)">
<path d="M -9.0 -7.92 L 0 -13.32 L 9.0 -7.92" fill="none" stroke="#fffdf6" stroke-width="1.8" stroke-linejoin="round" stroke-linecap="round"/>
</g>
<rect x="108" y="0" width="36" height="36" fill="#984f56" stroke="#30291f" stroke-width="1.3"/>
<line x1="111" y1="33" x2="141" y2="33" stroke="#fffdf6" stroke-width="0.65"/>
<g transform="translate(126.0 18.0) rotate(180)">
<path d="M -9.0 -7.92 L 0 -13.32 L 9.0 -7.92" fill="none" stroke="#fffdf6" stroke-width="1.8" stroke-linejoin="round" stroke-linecap="round"/>
</g>
<rect x="144" y="0" width="36" height="36" fill="#984f56" stroke="#30291f" stroke-width="1.3"/>
<line x1="147" y1="33" x2="177" y2="33" stroke="#fffdf6" stroke-width="0.65"/>
<g transform="translate(162.0 18.0) rotate(180)">
<path d="M -9.0 -7.92 L 0 -13.32 L 9.0 -7.92" fill="none" stroke="#fffdf6" stroke-width="1.8" stroke-linejoin="round" stroke-linecap="round"/>
</g>
<rect x="0" y="36" width="36" height="36" fill="#984f56" stroke="#30291f" stroke-width="1.3"/>
<line x1="3" y1="69" x2="33" y2="69" stroke="#fffdf6" stroke-width="0.65"/>
<g transform="translate(18.0 54.0) rotate(180)">
<path d="M -9.0 -7.92 L 0 -13.32 L 9.0 -7.92" fill="none" stroke="#fffdf6" stroke-width="1.8" stroke-linejoin="round" stroke-linecap="round"/>
</g>
<rect x="36" y="36" width="36" height="36" fill="#984f56" stroke="#30291f" stroke-width="1.3"/>
<line x1="39" y1="69" x2="69" y2="69" stroke="#fffdf6" stroke-width="0.65"/>
<g transform="translate(54.0 54.0) rotate(180)">
<path d="M -9.0 -7.92 L 0 -13.32 L 9.0 -7.92" fill="none" stroke="#fffdf6" stroke-width="1.8" stroke-linejoin="round" stroke-linecap="round"/>
</g>
<rect x="72" y="36" width="36" height="36" fill="#984f56" stroke="#30291f" stroke-width="1.3"/>
<line x1="75" y1="69" x2="105" y2="69" stroke="#fffdf6" stroke-width="0.65"/>
<g transform="translate(90.0 54.0) rotate(180)">
<path d="M -9.0 -7.92 L 0 -13.32 L 9.0 -7.92" fill="none" stroke="#fffdf6" stroke-width="1.8" stroke-linejoin="round" stroke-linecap="round"/>
</g>
<rect x="108" y="36" width="36" height="36" fill="#984f56" stroke="#30291f" stroke-width="1.3"/>
<line x1="111" y1="69" x2="141" y2="69" stroke="#fffdf6" stroke-width="0.65"/>
<g transform="translate(126.0 54.0) rotate(180)">
<path d="M -9.0 -7.92 L 0 -13.32 L 9.0 -7.92" fill="none" stroke="#fffdf6" stroke-width="1.8" stroke-linejoin="round" stroke-linecap="round"/>
</g>
<rect x="144" y="36" width="36" height="36" fill="#984f56" stroke="#30291f" stroke-width="1.3"/>
<line x1="147" y1="69" x2="177" y2="69" stroke="#fffdf6" stroke-width="0.65"/>
<g transform="translate(162.0 54.0) rotate(180)">
<path d="M -9.0 -7.92 L 0 -13.32 L 9.0 -7.92" fill="none" stroke="#fffdf6" stroke-width="1.8" stroke-linejoin="round" stroke-linecap="round"/>
</g>
<rect x="0" y="72" width="36" height="36" fill="#984f56" stroke="#30291f" stroke-width="1.3"/>
<line x1="3" y1="105" x2="33" y2="105" stroke="#fffdf6" stroke-width="0.65"/>
<g transform="translate(18.0 90.0) rotate(180)">
<path d="M -9.0 -7.92 L 0 -13.32 L 9.0 -7.92" fill="none" stroke="#fffdf6" stroke-width="1.8" stroke-linejoin="round" stroke-linecap="round"/>
</g>
<rect x="36" y="72" width="36" height="36" fill="#984f56" stroke="#30291f" stroke-width="1.3"/>
<line x1="39" y1="105" x2="69" y2="105" stroke="#fffdf6" stroke-width="0.65"/>
<g transform="translate(54.0 90.0) rotate(180)">
<path d="M -9.0 -7.92 L 0 -13.32 L 9.0 -7.92" fill="none" stroke="#fffdf6" stroke-width="1.8" stroke-linejoin="round" stroke-linecap="round"/>
</g>
<rect x="72" y="72" width="36" height="36" fill="#984f56" stroke="#30291f" stroke-width="1.3"/>
<line x1="75" y1="105" x2="105" y2="105" stroke="#fffdf6" stroke-width="0.65"/>
<g transform="translate(90.0 90.0) rotate(180)">
<path d="M -9.0 -7.92 L 0 -13.32 L 9.0 -7.92" fill="none" stroke="#fffdf6" stroke-width="1.8" stroke-linejoin="round" stroke-linecap="round"/>
</g>
<rect x="108" y="72" width="36" height="36" fill="#984f56" stroke="#30291f" stroke-width="1.3"/>
<line x1="111" y1="105" x2="141" y2="105" stroke="#fffdf6" stroke-width="0.65"/>
<g transform="translate(126.0 90.0) rotate(180)">
<path d="M -9.0 -7.92 L 0 -13.32 L 9.0 -7.92" fill="none" stroke="#fffdf6" stroke-width="1.8" stroke-linejoin="round" stroke-linecap="round"/>
</g>
<rect x="144" y="72" width="36" height="36" fill="#984f56" stroke="#30291f" stroke-width="1.3"/>
<line x1="147" y1="105" x2="177" y2="105" stroke="#fffdf6" stroke-width="0.65"/>
<g transform="translate(162.0 90.0) rotate(180)">
<path d="M -9.0 -7.92 L 0 -13.32 L 9.0 -7.92" fill="none" stroke="#fffdf6" stroke-width="1.8" stroke-linejoin="round" stroke-linecap="round"/>
</g>
<rect x="0" y="108" width="36" height="36" fill="#984f56" stroke="#30291f" stroke-width="1.3"/>
<line x1="3" y1="141" x2="33" y2="141" stroke="#fffdf6" stroke-width="0.65"/>
<g transform="translate(18.0 126.0) rotate(180)">
<path d="M -9.0 -7.92 L 0 -13.32 L 9.0 -7.92" fill="none" stroke="#fffdf6" stroke-width="1.8" stroke-linejoin="round" stroke-linecap="round"/>
</g>
<rect x="36" y="108" width="36" height="36" fill="#984f56" stroke="#30291f" stroke-width="1.3"/>
<line x1="39" y1="141" x2="69" y2="141" stroke="#fffdf6" stroke-width="0.65"/>
<g transform="translate(54.0 126.0) rotate(180)">
<path d="M -9.0 -7.92 L 0 -13.32 L 9.0 -7.92" fill="none" stroke="#fffdf6" stroke-width="1.8" stroke-linejoin="round" stroke-linecap="round"/>
</g>
<rect x="72" y="108" width="36" height="36" fill="#984f56" stroke="#30291f" stroke-width="1.3"/>
<line x1="75" y1="141" x2="105" y2="141" stroke="#fffdf6" stroke-width="0.65"/>
<g transform="translate(90.0 126.0) rotate(180)">
<path d="M -9.0 -7.92 L 0 -13.32 L 9.0 -7.92" fill="none" stroke="#fffdf6" stroke-width="1.8" stroke-linejoin="round" stroke-linecap="round"/>
</g>
<rect x="108" y="108" width="36" height="36" fill="#984f56" stroke="#30291f" stroke-width="1.3"/>
<line x1="111" y1="141" x2="141" y2="141" stroke="#fffdf6" stroke-width="0.65"/>
<g transform="translate(126.0 126.0) rotate(180)">
<path d="M -9.0 -7.92 L 0 -13.32 L 9.0 -7.92" fill="none" stroke="#fffdf6" stroke-width="1.8" stroke-linejoin="round" stroke-linecap="round"/>
</g>
<rect x="144" y="108" width="36" height="36" fill="#984f56" stroke="#30291f" stroke-width="1.3"/>
<line x1="147" y1="141" x2="177" y2="141" stroke="#fffdf6" stroke-width="0.65"/>
<g transform="translate(162.0 126.0) rotate(180)">
<path d="M -9.0 -7.92 L 0 -13.32 L 9.0 -7.92" fill="none" stroke="#fffdf6" stroke-width="1.8" stroke-linejoin="round" stroke-linecap="round"/>
</g>
</g>
<g transform="translate(146 295) rotate(0)">
<rect x="0" y="0" width="36" height="36" fill="#984f56" stroke="#30291f" stroke-width="1.3"/>
<line x1="3" y1="33" x2="33" y2="33" stroke="#fffdf6" stroke-width="0.65"/>
<g transform="translate(18.0 18.0) rotate(90)">
<path d="M -9.0 -7.92 L 0 -13.32 L 9.0 -7.92" fill="none" stroke="#fffdf6" stroke-width="1.8" stroke-linejoin="round" stroke-linecap="round"/>
</g>
<rect x="36" y="0" width="36" height="36" fill="#984f56" stroke="#30291f" stroke-width="1.3"/>
<line x1="39" y1="33" x2="69" y2="33" stroke="#fffdf6" stroke-width="0.65"/>
<g transform="translate(54.0 18.0) rotate(90)">
<path d="M -9.0 -7.92 L 0 -13.32 L 9.0 -7.92" fill="none" stroke="#fffdf6" stroke-width="1.8" stroke-linejoin="round" stroke-linecap="round"/>
</g>
<rect x="0" y="36" width="36" height="36" fill="#984f56" stroke="#30291f" stroke-width="1.3"/>
<line x1="3" y1="69" x2="33" y2="69" stroke="#fffdf6" stroke-width="0.65"/>
<g transform="translate(18.0 54.0) rotate(90)">
<path d="M -9.0 -7.92 L 0 -13.32 L 9.0 -7.92" fill="none" stroke="#fffdf6" stroke-width="1.8" stroke-linejoin="round" stroke-linecap="round"/>
</g>
<rect x="36" y="36" width="36" height="36" fill="#984f56" stroke="#30291f" stroke-width="1.3"/>
<line x1="39" y1="69" x2="69" y2="69" stroke="#fffdf6" stroke-width="0.65"/>
<g transform="translate(54.0 54.0) rotate(90)">
<path d="M -9.0 -7.92 L 0 -13.32 L 9.0 -7.92" fill="none" stroke="#fffdf6" stroke-width="1.8" stroke-linejoin="round" stroke-linecap="round"/>
</g>
<rect x="0" y="72" width="36" height="36" fill="#984f56" stroke="#30291f" stroke-width="1.3"/>
<line x1="3" y1="105" x2="33" y2="105" stroke="#fffdf6" stroke-width="0.65"/>
<g transform="translate(18.0 90.0) rotate(90)">
<path d="M -9.0 -7.92 L 0 -13.32 L 9.0 -7.92" fill="none" stroke="#fffdf6" stroke-width="1.8" stroke-linejoin="round" stroke-linecap="round"/>
</g>
<rect x="36" y="72" width="36" height="36" fill="#984f56" stroke="#30291f" stroke-width="1.3"/>
<line x1="39" y1="105" x2="69" y2="105" stroke="#fffdf6" stroke-width="0.65"/>
<g transform="translate(54.0 90.0) rotate(90)">
<path d="M -9.0 -7.92 L 0 -13.32 L 9.0 -7.92" fill="none" stroke="#fffdf6" stroke-width="1.8" stroke-linejoin="round" stroke-linecap="round"/>
</g>
<rect x="0" y="108" width="36" height="36" fill="#984f56" stroke="#30291f" stroke-width="1.3"/>
<line x1="3" y1="141" x2="33" y2="141" stroke="#fffdf6" stroke-width="0.65"/>
<g transform="translate(18.0 126.0) rotate(90)">
<path d="M -9.0 -7.92 L 0 -13.32 L 9.0 -7.92" fill="none" stroke="#fffdf6" stroke-width="1.8" stroke-linejoin="round" stroke-linecap="round"/>
</g>
<rect x="36" y="108" width="36" height="36" fill="#984f56" stroke="#30291f" stroke-width="1.3"/>
<line x1="39" y1="141" x2="69" y2="141" stroke="#fffdf6" stroke-width="0.65"/>
<g transform="translate(54.0 126.0) rotate(90)">
<path d="M -9.0 -7.92 L 0 -13.32 L 9.0 -7.92" fill="none" stroke="#fffdf6" stroke-width="1.8" stroke-linejoin="round" stroke-linecap="round"/>
</g>
<rect x="0" y="144" width="36" height="36" fill="#984f56" stroke="#30291f" stroke-width="1.3"/>
<line x1="3" y1="177" x2="33" y2="177" stroke="#fffdf6" stroke-width="0.65"/>
<g transform="translate(18.0 162.0) rotate(90)">
<path d="M -9.0 -7.92 L 0 -13.32 L 9.0 -7.92" fill="none" stroke="#fffdf6" stroke-width="1.8" stroke-linejoin="round" stroke-linecap="round"/>
</g>
<rect x="36" y="144" width="36" height="36" fill="#984f56" stroke="#30291f" stroke-width="1.3"/>
<line x1="39" y1="177" x2="69" y2="177" stroke="#fffdf6" stroke-width="0.65"/>
<g transform="translate(54.0 162.0) rotate(90)">
<path d="M -9.0 -7.92 L 0 -13.32 L 9.0 -7.92" fill="none" stroke="#fffdf6" stroke-width="1.8" stroke-linejoin="round" stroke-linecap="round"/>
</g>
</g>
<g transform="translate(218 295) rotate(0)">
<rect x="0" y="0" width="36" height="36" fill="#5c8798" stroke="#30291f" stroke-width="1.3"/>
<line x1="3" y1="33" x2="33" y2="33" stroke="#fffdf6" stroke-width="0.65"/>
<g transform="translate(18.0 18.0) rotate(0)">
<path d="M -9.0 -7.92 L 0 -13.32 L 9.0 -7.92" fill="none" stroke="#fffdf6" stroke-width="1.8" stroke-linejoin="round" stroke-linecap="round"/>
</g>
<rect x="36" y="0" width="36" height="36" fill="#5c8798" stroke="#30291f" stroke-width="1.3"/>
<line x1="39" y1="33" x2="69" y2="33" stroke="#fffdf6" stroke-width="0.65"/>
<g transform="translate(54.0 18.0) rotate(0)">
<path d="M -9.0 -7.92 L 0 -13.32 L 9.0 -7.92" fill="none" stroke="#fffdf6" stroke-width="1.8" stroke-linejoin="round" stroke-linecap="round"/>
</g>
<rect x="72" y="0" width="36" height="36" fill="#5c8798" stroke="#30291f" stroke-width="1.3"/>
<line x1="75" y1="33" x2="105" y2="33" stroke="#fffdf6" stroke-width="0.65"/>
<g transform="translate(90.0 18.0) rotate(0)">
<path d="M -9.0 -7.92 L 0 -13.32 L 9.0 -7.92" fill="none" stroke="#fffdf6" stroke-width="1.8" stroke-linejoin="round" stroke-linecap="round"/>
</g>
<rect x="108" y="0" width="36" height="36" fill="#5c8798" stroke="#30291f" stroke-width="1.3"/>
<line x1="111" y1="33" x2="141" y2="33" stroke="#fffdf6" stroke-width="0.65"/>
<g transform="translate(126.0 18.0) rotate(0)">
<path d="M -9.0 -7.92 L 0 -13.32 L 9.0 -7.92" fill="none" stroke="#fffdf6" stroke-width="1.8" stroke-linejoin="round" stroke-linecap="round"/>
</g>
<rect x="144" y="0" width="36" height="36" fill="#5c8798" stroke="#30291f" stroke-width="1.3"/>
<line x1="147" y1="33" x2="177" y2="33" stroke="#fffdf6" stroke-width="0.65"/>
<g transform="translate(162.0 18.0) rotate(0)">
<path d="M -9.0 -7.92 L 0 -13.32 L 9.0 -7.92" fill="none" stroke="#fffdf6" stroke-width="1.8" stroke-linejoin="round" stroke-linecap="round"/>
</g>
<rect x="180" y="0" width="36" height="36" fill="#5c8798" stroke="#30291f" stroke-width="1.3"/>
<line x1="183" y1="33" x2="213" y2="33" stroke="#fffdf6" stroke-width="0.65"/>
<g transform="translate(198.0 18.0) rotate(0)">
<path d="M -9.0 -7.92 L 0 -13.32 L 9.0 -7.92" fill="none" stroke="#fffdf6" stroke-width="1.8" stroke-linejoin="round" stroke-linecap="round"/>
</g>
<rect x="0" y="36" width="36" height="36" fill="#5c8798" stroke="#30291f" stroke-width="1.3"/>
<line x1="3" y1="69" x2="33" y2="69" stroke="#fffdf6" stroke-width="0.65"/>
<g transform="translate(18.0 54.0) rotate(0)">
<path d="M -9.0 -7.92 L 0 -13.32 L 9.0 -7.92" fill="none" stroke="#fffdf6" stroke-width="1.8" stroke-linejoin="round" stroke-linecap="round"/>
</g>
<rect x="36" y="36" width="36" height="36" fill="#5c8798" stroke="#30291f" stroke-width="1.3"/>
<line x1="39" y1="69" x2="69" y2="69" stroke="#fffdf6" stroke-width="0.65"/>
<g transform="translate(54.0 54.0) rotate(0)">
<path d="M -9.0 -7.92 L 0 -13.32 L 9.0 -7.92" fill="none" stroke="#fffdf6" stroke-width="1.8" stroke-linejoin="round" stroke-linecap="round"/>
</g>
<rect x="72" y="36" width="36" height="36" fill="#5c8798" stroke="#30291f" stroke-width="1.3"/>
<line x1="75" y1="69" x2="105" y2="69" stroke="#fffdf6" stroke-width="0.65"/>
<g transform="translate(90.0 54.0) rotate(0)">
<path d="M -9.0 -7.92 L 0 -13.32 L 9.0 -7.92" fill="none" stroke="#fffdf6" stroke-width="1.8" stroke-linejoin="round" stroke-linecap="round"/>
</g>
<rect x="108" y="36" width="36" height="36" fill="#5c8798" stroke="#30291f" stroke-width="1.3"/>
<line x1="111" y1="69" x2="141" y2="69" stroke="#fffdf6" stroke-width="0.65"/>
<g transform="translate(126.0 54.0) rotate(0)">
<path d="M -9.0 -7.92 L 0 -13.32 L 9.0 -7.92" fill="none" stroke="#fffdf6" stroke-width="1.8" stroke-linejoin="round" stroke-linecap="round"/>
</g>
<rect x="144" y="36" width="36" height="36" fill="#5c8798" stroke="#30291f" stroke-width="1.3"/>
<line x1="147" y1="69" x2="177" y2="69" stroke="#fffdf6" stroke-width="0.65"/>
<g transform="translate(162.0 54.0) rotate(0)">
<path d="M -9.0 -7.92 L 0 -13.32 L 9.0 -7.92" fill="none" stroke="#fffdf6" stroke-width="1.8" stroke-linejoin="round" stroke-linecap="round"/>
</g>
<rect x="180" y="36" width="36" height="36" fill="#5c8798" stroke="#30291f" stroke-width="1.3"/>
<line x1="183" y1="69" x2="213" y2="69" stroke="#fffdf6" stroke-width="0.65"/>
<g transform="translate(198.0 54.0) rotate(0)">
<path d="M -9.0 -7.92 L 0 -13.32 L 9.0 -7.92" fill="none" stroke="#fffdf6" stroke-width="1.8" stroke-linejoin="round" stroke-linecap="round"/>
</g>
<rect x="0" y="72" width="36" height="36" fill="#5c8798" stroke="#30291f" stroke-width="1.3"/>
<line x1="3" y1="105" x2="33" y2="105" stroke="#fffdf6" stroke-width="0.65"/>
<g transform="translate(18.0 90.0) rotate(0)">
<path d="M -9.0 -7.92 L 0 -13.32 L 9.0 -7.92" fill="none" stroke="#fffdf6" stroke-width="1.8" stroke-linejoin="round" stroke-linecap="round"/>
</g>
<rect x="36" y="72" width="36" height="36" fill="#5c8798" stroke="#30291f" stroke-width="1.3"/>
<line x1="39" y1="105" x2="69" y2="105" stroke="#fffdf6" stroke-width="0.65"/>
<g transform="translate(54.0 90.0) rotate(0)">
<path d="M -9.0 -7.92 L 0 -13.32 L 9.0 -7.92" fill="none" stroke="#fffdf6" stroke-width="1.8" stroke-linejoin="round" stroke-linecap="round"/>
</g>
<rect x="72" y="72" width="36" height="36" fill="#5c8798" stroke="#30291f" stroke-width="1.3"/>
<line x1="75" y1="105" x2="105" y2="105" stroke="#fffdf6" stroke-width="0.65"/>
<g transform="translate(90.0 90.0) rotate(0)">
<path d="M -9.0 -7.92 L 0 -13.32 L 9.0 -7.92" fill="none" stroke="#fffdf6" stroke-width="1.8" stroke-linejoin="round" stroke-linecap="round"/>
</g>
<rect x="108" y="72" width="36" height="36" fill="#5c8798" stroke="#30291f" stroke-width="1.3"/>
<line x1="111" y1="105" x2="141" y2="105" stroke="#fffdf6" stroke-width="0.65"/>
<g transform="translate(126.0 90.0) rotate(0)">
<path d="M -9.0 -7.92 L 0 -13.32 L 9.0 -7.92" fill="none" stroke="#fffdf6" stroke-width="1.8" stroke-linejoin="round" stroke-linecap="round"/>
</g>
<rect x="144" y="72" width="36" height="36" fill="#5c8798" stroke="#30291f" stroke-width="1.3"/>
<line x1="147" y1="105" x2="177" y2="105" stroke="#fffdf6" stroke-width="0.65"/>
<g transform="translate(162.0 90.0) rotate(0)">
<path d="M -9.0 -7.92 L 0 -13.32 L 9.0 -7.92" fill="none" stroke="#fffdf6" stroke-width="1.8" stroke-linejoin="round" stroke-linecap="round"/>
</g>
<rect x="180" y="72" width="36" height="36" fill="#5c8798" stroke="#30291f" stroke-width="1.3"/>
<line x1="183" y1="105" x2="213" y2="105" stroke="#fffdf6" stroke-width="0.65"/>
<g transform="translate(198.0 90.0) rotate(0)">
<path d="M -9.0 -7.92 L 0 -13.32 L 9.0 -7.92" fill="none" stroke="#fffdf6" stroke-width="1.8" stroke-linejoin="round" stroke-linecap="round"/>
</g>
<rect x="0" y="108" width="36" height="36" fill="#5c8798" stroke="#30291f" stroke-width="1.3"/>
<line x1="3" y1="141" x2="33" y2="141" stroke="#fffdf6" stroke-width="0.65"/>
<g transform="translate(18.0 126.0) rotate(0)">
<path d="M -9.0 -7.92 L 0 -13.32 L 9.0 -7.92" fill="none" stroke="#fffdf6" stroke-width="1.8" stroke-linejoin="round" stroke-linecap="round"/>
</g>
<rect x="36" y="108" width="36" height="36" fill="#5c8798" stroke="#30291f" stroke-width="1.3"/>
<line x1="39" y1="141" x2="69" y2="141" stroke="#fffdf6" stroke-width="0.65"/>
<g transform="translate(54.0 126.0) rotate(0)">
<path d="M -9.0 -7.92 L 0 -13.32 L 9.0 -7.92" fill="none" stroke="#fffdf6" stroke-width="1.8" stroke-linejoin="round" stroke-linecap="round"/>
</g>
<rect x="72" y="108" width="36" height="36" fill="#5c8798" stroke="#30291f" stroke-width="1.3"/>
<line x1="75" y1="141" x2="105" y2="141" stroke="#fffdf6" stroke-width="0.65"/>
<g transform="translate(90.0 126.0) rotate(0)">
<path d="M -9.0 -7.92 L 0 -13.32 L 9.0 -7.92" fill="none" stroke="#fffdf6" stroke-width="1.8" stroke-linejoin="round" stroke-linecap="round"/>
</g>
<rect x="108" y="108" width="36" height="36" fill="#5c8798" stroke="#30291f" stroke-width="1.3"/>
<line x1="111" y1="141" x2="141" y2="141" stroke="#fffdf6" stroke-width="0.65"/>
<g transform="translate(126.0 126.0) rotate(0)">
<path d="M -9.0 -7.92 L 0 -13.32 L 9.0 -7.92" fill="none" stroke="#fffdf6" stroke-width="1.8" stroke-linejoin="round" stroke-linecap="round"/>
</g>
<rect x="144" y="108" width="36" height="36" fill="#5c8798" stroke="#30291f" stroke-width="1.3"/>
<line x1="147" y1="141" x2="177" y2="141" stroke="#fffdf6" stroke-width="0.65"/>
<g transform="translate(162.0 126.0) rotate(0)">
<path d="M -9.0 -7.92 L 0 -13.32 L 9.0 -7.92" fill="none" stroke="#fffdf6" stroke-width="1.8" stroke-linejoin="round" stroke-linecap="round"/>
</g>
<rect x="180" y="108" width="36" height="36" fill="#5c8798" stroke="#30291f" stroke-width="1.3"/>
<line x1="183" y1="141" x2="213" y2="141" stroke="#fffdf6" stroke-width="0.65"/>
<g transform="translate(198.0 126.0) rotate(0)">
<path d="M -9.0 -7.92 L 0 -13.32 L 9.0 -7.92" fill="none" stroke="#fffdf6" stroke-width="1.8" stroke-linejoin="round" stroke-linecap="round"/>
</g>
<rect x="0" y="144" width="36" height="36" fill="#5c8798" stroke="#30291f" stroke-width="1.3"/>
<line x1="3" y1="177" x2="33" y2="177" stroke="#fffdf6" stroke-width="0.65"/>
<g transform="translate(18.0 162.0) rotate(0)">
<path d="M -9.0 -7.92 L 0 -13.32 L 9.0 -7.92" fill="none" stroke="#fffdf6" stroke-width="1.8" stroke-linejoin="round" stroke-linecap="round"/>
</g>
<rect x="36" y="144" width="36" height="36" fill="#5c8798" stroke="#30291f" stroke-width="1.3"/>
<line x1="39" y1="177" x2="69" y2="177" stroke="#fffdf6" stroke-width="0.65"/>
<g transform="translate(54.0 162.0) rotate(0)">
<path d="M -9.0 -7.92 L 0 -13.32 L 9.0 -7.92" fill="none" stroke="#fffdf6" stroke-width="1.8" stroke-linejoin="round" stroke-linecap="round"/>
</g>
<rect x="72" y="144" width="36" height="36" fill="#5c8798" stroke="#30291f" stroke-width="1.3"/>
<line x1="75" y1="177" x2="105" y2="177" stroke="#fffdf6" stroke-width="0.65"/>
<g transform="translate(90.0 162.0) rotate(0)">
<path d="M -9.0 -7.92 L 0 -13.32 L 9.0 -7.92" fill="none" stroke="#fffdf6" stroke-width="1.8" stroke-linejoin="round" stroke-linecap="round"/>
</g>
<rect x="108" y="144" width="36" height="36" fill="#5c8798" stroke="#30291f" stroke-width="1.3"/>
<line x1="111" y1="177" x2="141" y2="177" stroke="#fffdf6" stroke-width="0.65"/>
<g transform="translate(126.0 162.0) rotate(0)">
<path d="M -9.0 -7.92 L 0 -13.32 L 9.0 -7.92" fill="none" stroke="#fffdf6" stroke-width="1.8" stroke-linejoin="round" stroke-linecap="round"/>
</g>
<rect x="144" y="144" width="36" height="36" fill="#5c8798" stroke="#30291f" stroke-width="1.3"/>
<line x1="147" y1="177" x2="177" y2="177" stroke="#fffdf6" stroke-width="0.65"/>
<g transform="translate(162.0 162.0) rotate(0)">
<path d="M -9.0 -7.92 L 0 -13.32 L 9.0 -7.92" fill="none" stroke="#fffdf6" stroke-width="1.8" stroke-linejoin="round" stroke-linecap="round"/>
</g>
<rect x="180" y="144" width="36" height="36" fill="#5c8798" stroke="#30291f" stroke-width="1.3"/>
<line x1="183" y1="177" x2="213" y2="177" stroke="#fffdf6" stroke-width="0.65"/>
<g transform="translate(198.0 162.0) rotate(0)">
<path d="M -9.0 -7.92 L 0 -13.32 L 9.0 -7.92" fill="none" stroke="#fffdf6" stroke-width="1.8" stroke-linejoin="round" stroke-linecap="round"/>
</g>
</g>
</svg>
